# Blender v2.73 (sub 0) OBJ File: 'buildings.blend'
# www.blender.org
o container_Plane.003
v -0.951664 0.007867 1.716762
v -0.793684 0.007867 1.812312
v -0.781955 0.007867 1.436170
v -0.623976 0.007867 1.531719
v -0.951664 0.184015 1.716762
v -0.793684 0.184015 1.812312
v -0.781955 0.184015 1.436170
v -0.623976 0.184015 1.531719
vn 0.000000 -1.000000 -0.000000
vn 0.000000 1.000000 0.000000
vn 0.517500 0.000000 -0.855700
vn 0.855700 0.000000 0.517500
vn -0.517500 0.000000 0.855700
vn -0.855700 0.000000 -0.517500
s off
f 3//1 4//1 2//1
f 6//2 8//2 7//2
f 3//3 7//3 8//3
f 4//4 8//4 6//4
f 2//5 6//5 5//5
f 1//6 5//6 7//6
f 1//1 3//1 2//1
f 5//2 6//2 7//2
f 4//3 3//3 8//3
f 2//4 4//4 6//4
f 1//5 2//5 5//5
f 3//6 1//6 7//6
