# Blender v2.73 (sub 0) OBJ File: 'untitled.blend'
# www.blender.org
o geb13_Plane.015
v 0.460120 0.007866 -5.161192
v 0.715438 0.007866 -5.002099
v 0.802551 0.007866 -5.710735
v 1.057868 0.007866 -5.551642
v 0.460120 0.257640 -5.161192
v 0.715438 0.257640 -5.002099
v 0.802551 0.257640 -5.710735
v 1.057868 0.257640 -5.551642
vn 0.000000 -1.000000 0.000000
vn 0.000000 1.000000 0.000000
vn 0.528800 0.000000 -0.848700
vn 0.848700 0.000000 0.528800
vn -0.528800 0.000000 0.848700
vn -0.848700 0.000000 -0.528800
vn -0.528900 0.000000 0.848700
s off
f 3//1 4//1 2//1
f 6//2 8//2 7//2
f 3//3 7//3 8//3
f 4//4 8//4 6//4
f 2//5 6//5 5//5
f 1//6 5//6 7//6
f 1//1 3//1 2//1
f 5//2 6//2 7//2
f 4//3 3//3 8//3
f 2//4 4//4 6//4
f 1//7 2//7 5//7
f 3//6 1//6 7//6
