# Blender v2.73 (sub 0) OBJ File: 'untitled.blend'
# www.blender.org
o geb12_Plane.012
v 0.386797 0.007866 -3.431117
v 0.728811 0.007866 -3.228723
v 0.910544 0.007866 -4.316170
v 1.252558 0.007866 -4.113777
v 0.386797 0.312035 -3.431117
v 0.728811 0.312035 -3.228723
v 0.910544 0.312035 -4.316170
v 1.252558 0.312035 -4.113777
vn 0.000000 -1.000000 0.000000
vn 0.000000 1.000000 0.000000
vn 0.509300 0.000000 -0.860600
vn 0.860600 0.000000 0.509300
vn -0.509300 0.000000 0.860600
vn -0.860600 0.000000 -0.509300
s off
f 3//1 4//1 2//1
f 6//2 8//2 7//2
f 3//3 7//3 8//3
f 4//4 8//4 6//4
f 2//5 6//5 5//5
f 1//6 5//6 7//6
f 1//1 3//1 2//1
f 5//2 6//2 7//2
f 4//3 3//3 8//3
f 2//4 4//4 6//4
f 1//5 2//5 5//5
f 3//6 1//6 7//6
