# Blender v2.73 (sub 0) OBJ File: 'untitled.blend'
# www.blender.org
o Geb3-4_Plane.004
v -3.819864 0.005594 -0.217085
v -3.676998 0.005594 -0.128593
v -3.509498 0.005594 -0.406225
v -3.079169 0.005594 -0.161431
v -3.911553 0.005594 -0.055028
v -3.207886 0.005594 0.393826
v -3.465897 0.005594 0.887460
v -3.200423 0.005594 1.042053
v -3.149247 0.005594 0.953562
v -2.520211 0.005594 1.262749
v -1.814256 0.005594 1.698367
v -2.072179 0.005594 2.185043
v -1.803509 0.005594 2.346245
v -1.748097 0.005594 2.246077
v -1.217930 0.005594 2.545550
v -0.964531 0.005594 2.104918
v -1.476959 0.005594 1.762830
v -1.179920 0.005594 1.263072
v -1.441765 0.005594 1.112440
v -1.540309 0.005594 1.239140
v -2.272349 0.005594 0.815401
v -2.910070 0.005594 0.476129
v -2.583467 0.005594 -0.034892
v -2.848128 0.005594 -0.202416
v -2.932594 0.005594 -0.071494
v -3.819864 0.366248 -0.217085
v -3.676998 0.366248 -0.128593
v -3.509498 0.366248 -0.406225
v -3.079169 0.366248 -0.161431
v -3.911553 0.366248 -0.055028
v -3.207886 0.366248 0.393826
v -3.465897 0.366248 0.887460
v -3.200423 0.366248 1.042053
v -3.149247 0.366248 0.953562
v -2.520211 0.366248 1.262749
v -1.814256 0.366248 1.698367
v -2.072179 0.366248 2.185043
v -1.803509 0.366248 2.346245
v -1.748097 0.366248 2.246077
v -1.217930 0.366248 2.545550
v -0.964531 0.366248 2.104918
v -1.476959 0.366248 1.762830
v -1.179920 0.366248 1.263072
v -1.441765 0.366248 1.112440
v -1.540309 0.366248 1.239140
v -2.272349 0.366248 0.815401
v -2.910070 0.366248 0.476129
v -2.583467 0.366248 -0.034892
v -2.848128 0.366248 -0.202416
v -2.932594 0.366248 -0.071494
vn 0.000000 1.000000 0.000000
vn 0.000000 -1.000000 -0.000000
vn 0.840300 0.000000 0.542100
vn -0.526600 0.000000 0.850100
vn -0.875000 0.000000 -0.484100
vn -0.842600 0.000000 -0.538500
vn 0.883600 0.000000 0.468300
vn -0.501000 0.000000 0.865500
vn 0.441100 0.000000 -0.897400
vn -0.498600 0.000000 0.866800
vn 0.503200 0.000000 -0.864200
vn 0.537800 0.000000 -0.843100
vn -0.555200 0.000000 0.831700
vn -0.523000 0.000000 0.852300
vn 0.856200 0.000000 0.516600
vn 0.491800 0.000000 -0.870700
vn -0.534800 0.000000 0.845000
vn 0.870400 0.000000 0.492400
vn 0.514500 0.000000 -0.857500
vn -0.469700 0.000000 0.882800
vn 0.525100 0.000000 -0.851000
vn 0.789400 0.000000 0.613900
vn -0.865700 0.000000 -0.500600
vn -0.859600 0.000000 -0.510900
vn 0.886200 0.000000 0.463200
vn -0.494400 0.000000 0.869200
vn -0.866900 0.000000 -0.498500
s off
f 11//1 14//1 17//1
f 45//2 35//2 46//2
f 24//3 49//3 50//3
f 2//4 27//4 26//4
f 13//5 38//5 39//5
f 22//6 47//6 48//6
f 11//7 36//7 37//7
f 20//8 45//8 46//8
f 9//9 34//9 35//9
f 18//10 43//10 44//10
f 7//11 32//11 33//11
f 5//12 30//12 31//12
f 16//13 41//13 42//13
f 4//14 25//14 50//14
f 3//15 28//15 27//15
f 14//16 39//16 40//16
f 23//17 48//17 49//17
f 1//18 26//18 30//18
f 12//19 37//19 38//19
f 21//20 46//20 47//20
f 10//21 35//21 36//21
f 19//22 44//22 45//22
f 8//23 33//23 34//23
f 17//24 42//24 43//24
f 6//25 31//25 32//25
f 4//26 29//26 28//26
f 15//27 40//27 41//27
f 4//1 3//1 2//1
f 2//1 1//1 5//1
f 9//1 7//1 8//1
f 2//1 5//1 6//1
f 6//1 4//1 2//1
f 23//1 24//1 25//1
f 10//1 21//1 22//1
f 22//1 23//1 25//1
f 25//1 4//1 6//1
f 6//1 7//1 9//1
f 14//1 12//1 13//1
f 22//1 9//1 10//1
f 11//1 12//1 14//1
f 20//1 10//1 11//1
f 22//1 25//1 6//1
f 18//1 19//1 20//1
f 9//1 22//1 6//1
f 16//1 14//1 15//1
f 20//1 21//1 10//1
f 17//1 18//1 20//1
f 14//1 16//1 17//1
f 17//1 20//1 11//1
f 27//2 30//2 26//2
f 34//2 32//2 31//2
f 39//2 37//2 36//2
f 34//2 33//2 32//2
f 39//2 38//2 37//2
f 47//2 34//2 31//2
f 42//2 39//2 36//2
f 47//2 35//2 34//2
f 31//2 30//2 27//2
f 27//2 28//2 29//2
f 50//2 49//2 48//2
f 31//2 29//2 50//2
f 29//2 31//2 27//2
f 41//2 40//2 39//2
f 45//2 43//2 42//2
f 42//2 41//2 39//2
f 47//2 50//2 48//2
f 47//2 46//2 35//2
f 45//2 44//2 43//2
f 42//2 36//2 45//2
f 31//2 50//2 47//2
f 36//2 35//2 45//2
f 25//3 24//3 50//3
f 1//4 2//4 26//4
f 14//5 13//5 39//5
f 23//6 22//6 48//6
f 12//7 11//7 37//7
f 21//8 20//8 46//8
f 10//9 9//9 35//9
f 19//10 18//10 44//10
f 8//11 7//11 33//11
f 6//12 5//12 31//12
f 17//13 16//13 42//13
f 29//14 4//14 50//14
f 2//15 3//15 27//15
f 15//16 14//16 40//16
f 24//17 23//17 49//17
f 5//18 1//18 30//18
f 13//19 12//19 38//19
f 22//20 21//20 47//20
f 11//21 10//21 36//21
f 20//22 19//22 45//22
f 9//23 8//23 34//23
f 18//24 17//24 43//24
f 7//25 6//25 32//25
f 3//26 4//26 28//26
f 16//27 15//27 41//27
