# Blender v2.73 (sub 0) OBJ File: 'untitled.blend'
# www.blender.org
mtllib geb6.mtl
o geb6_Plane.006
v -1.442229 -0.000025 -0.631138
v -0.846929 -0.000025 -0.285515
v -1.096607 -0.000025 -1.226439
v -0.501306 -0.000025 -0.880816
v -1.442229 0.274621 -0.631138
v -0.846929 0.274621 -0.285515
v -1.096607 0.274621 -1.226439
v -0.501306 0.274621 -0.880816
vn 0.000000 -1.000000 0.000000
vn 0.000000 1.000000 -0.000000
vn 0.502100 0.000000 -0.864800
vn 0.864800 0.000000 0.502100
vn -0.502100 0.000000 0.864800
vn -0.864800 0.000000 -0.502100
usemtl None
s off
f 3//1 4//1 2//1
f 6//2 8//2 7//2
f 3//3 7//3 8//3
f 4//4 8//4 6//4
f 2//5 6//5 5//5
f 1//6 5//6 7//6
f 1//1 3//1 2//1
f 5//2 6//2 7//2
f 4//3 3//3 8//3
f 2//4 4//4 6//4
f 1//5 2//5 5//5
f 3//6 1//6 7//6
