# Blender v2.73 (sub 0) OBJ File: 'untitled.blend'
# www.blender.org
o geb7_Plane.008
v 1.541216 0.026738 -0.493409
v 1.504340 0.026738 -0.516956
v 0.707160 0.026738 -1.346405
v 1.645733 0.026738 -0.808885
v 1.392720 0.026738 -0.252988
v 1.356421 0.026738 -0.272316
v 1.076599 0.026738 0.242064
v 1.007360 0.026738 0.202767
v 0.593800 0.026738 0.911994
v 0.045506 0.026738 0.621940
v 0.146557 0.026738 0.423581
v -0.055545 0.026738 0.290718
v 0.052991 0.026738 0.092359
v -0.366183 0.026738 -0.164010
v 0.189597 0.026738 -1.118379
v 0.475908 0.026738 -0.963060
v 1.541216 0.327675 -0.493409
v 1.504341 0.327675 -0.516956
v 0.707160 0.327675 -1.346405
v 1.645733 0.327675 -0.808885
v 1.392720 0.327675 -0.252988
v 1.356421 0.327675 -0.272316
v 1.076599 0.327675 0.242064
v 1.007360 0.327675 0.202767
v 0.593800 0.327675 0.911994
v 0.045506 0.327675 0.621941
v 0.146557 0.327675 0.423581
v -0.055545 0.327675 0.290718
v 0.052991 0.327675 0.092359
v -0.366183 0.327676 -0.164010
v 0.189597 0.327676 -1.118379
v 0.475908 0.327676 -0.963060
v 1.541216 0.327675 -0.493409
v 1.504341 0.327675 -0.516956
v 0.707160 0.327675 -1.346405
v 1.645733 0.327675 -0.808885
v 1.392720 0.327675 -0.252988
v 1.356421 0.327675 -0.272316
v 1.076599 0.327675 0.242064
v 1.007360 0.327675 0.202767
v 0.593800 0.327675 0.911994
v 0.045506 0.327675 0.621941
v 0.146557 0.327675 0.423581
v -0.055545 0.327675 0.290718
v 0.052991 0.327675 0.092359
v -0.366183 0.327676 -0.164010
v 0.189597 0.327676 -1.118379
v 0.475908 0.327676 -0.963060
vn 0.000000 1.000000 0.000000
vn 0.000000 0.000000 1.000000
vn 0.891000 0.000000 0.453900
vn -0.863900 0.000000 -0.503700
vn -0.878400 -0.000000 -0.477900
vn -0.497000 0.000000 0.867800
vn -0.476800 0.000000 0.879000
vn -0.538200 0.000000 0.842800
vn 0.521800 -0.000000 -0.853100
vn 0.549300 -0.000000 -0.835600
vn 0.467600 0.000000 -0.883900
vn 0.493600 0.000000 -0.869700
vn 0.470000 0.000000 -0.882700
vn 0.856300 -0.000000 0.516500
vn -0.900000 0.000000 -0.435900
vn 0.864100 0.000000 0.503200
vn -0.850800 0.000000 -0.525500
vn 0.877300 0.000000 0.480000
vn -0.000000 -1.000000 -0.000000
s off
f 16//1 13//1 8//1
f 21//2 22//2 38//2
f 11//3 27//3 26//3
f 9//4 25//4 24//4
f 7//5 23//5 22//5
f 4//6 20//6 19//6
f 16//7 32//7 31//7
f 1//8 17//8 18//8
f 13//9 14//9 30//9
f 11//10 12//10 28//10
f 10//11 26//11 25//11
f 8//12 24//12 23//12
f 6//13 22//13 21//13
f 16//14 3//14 19//14
f 2//15 18//15 20//15
f 15//16 31//16 30//16
f 5//17 21//17 17//17
f 13//18 29//18 28//18
f 40//19 45//19 48//19
f 32//2 19//2 35//2
f 20//2 18//2 34//2
f 30//2 31//2 47//2
f 17//2 21//2 37//2
f 28//2 29//2 45//2
f 26//2 27//2 43//2
f 24//2 25//2 41//2
f 22//2 23//2 39//2
f 19//2 20//2 36//2
f 31//2 32//2 48//2
f 18//2 17//2 33//2
f 29//2 30//2 46//2
f 27//2 28//2 44//2
f 25//2 26//2 42//2
f 23//2 24//2 40//2
f 8//1 7//1 6//1
f 2//1 5//1 1//1
f 2//1 4//1 3//1
f 6//1 5//1 2//1
f 11//1 9//1 8//1
f 16//1 6//1 2//1
f 2//1 3//1 16//1
f 16//1 15//1 14//1
f 13//1 12//1 11//1
f 16//1 14//1 13//1
f 8//1 6//1 16//1
f 11//1 10//1 9//1
f 8//1 13//1 11//1
f 37//2 21//2 38//2
f 10//3 11//3 26//3
f 8//4 9//4 24//4
f 6//5 7//5 22//5
f 3//6 4//6 19//6
f 15//7 16//7 31//7
f 2//8 1//8 18//8
f 29//9 13//9 30//9
f 27//10 11//10 28//10
f 9//11 10//11 25//11
f 7//12 8//12 23//12
f 5//13 6//13 21//13
f 32//14 16//14 19//14
f 4//15 2//15 20//15
f 14//16 15//16 30//16
f 1//17 5//17 17//17
f 12//18 13//18 28//18
f 34//19 33//19 37//19
f 35//19 36//19 34//19
f 46//19 47//19 48//19
f 48//19 35//19 34//19
f 34//19 37//19 38//19
f 38//19 39//19 40//19
f 43//19 41//19 42//19
f 43//19 44//19 45//19
f 40//19 41//19 43//19
f 48//19 38//19 40//19
f 38//19 48//19 34//19
f 40//19 43//19 45//19
f 45//19 46//19 48//19
f 48//2 32//2 35//2
f 36//2 20//2 34//2
f 46//2 30//2 47//2
f 33//2 17//2 37//2
f 44//2 28//2 45//2
f 42//2 26//2 43//2
f 40//2 24//2 41//2
f 38//2 22//2 39//2
f 35//2 19//2 36//2
f 47//2 31//2 48//2
f 34//2 18//2 33//2
f 45//2 29//2 46//2
f 43//2 27//2 44//2
f 41//2 25//2 42//2
f 39//2 23//2 40//2
