# Blender v2.73 (sub 0) OBJ File: 'untitled.blend'
# www.blender.org
mtllib geb9.mtl
o geb9_Plane.007
v -2.866527 0.024605 -2.613525
v -1.164509 0.024605 -1.650723
v -2.286190 0.024605 -3.639431
v -0.584172 0.024605 -2.676629
v -2.286190 0.024605 -3.639431
v -0.584172 0.024605 -2.676629
v -2.088494 0.024604 -2.625988
v -1.901863 0.024604 -2.938720
v -2.088494 0.024604 -2.625988
v -1.901863 0.024604 -2.938720
v -1.483205 0.024604 -2.716781
v -1.164509 0.024605 -1.650723
v -2.866527 0.024605 -2.613525
v -1.644615 0.024604 -2.399005
v -1.483205 0.024604 -2.716781
v -1.644615 0.024604 -2.399005
v -2.286190 0.352596 -3.639431
v -0.584172 0.352596 -2.676629
v -2.088494 0.352595 -2.625988
v -1.901863 0.352595 -2.938720
v -1.164509 0.352596 -1.650723
v -2.866527 0.352596 -2.613525
v -1.483205 0.352595 -2.716781
v -1.644615 0.352595 -2.399005
v -2.286190 0.352596 -3.639431
v -0.584172 0.352596 -2.676629
v -2.088494 0.352595 -2.625988
v -1.901863 0.352595 -2.938720
v -1.164509 0.352596 -1.650723
v -2.866527 0.352596 -2.613525
v -1.483205 0.352595 -2.716781
v -1.644615 0.352595 -2.399005
vn -0.891600 0.000000 -0.452900
vn 0.455300 0.000000 -0.890300
vn 0.000000 -1.000000 -0.000000
vn 0.000000 0.000000 1.000000
vn -0.468400 0.000000 0.883500
vn -0.870400 0.000000 -0.492400
vn 0.870400 0.000000 0.492400
vn 0.858700 0.000000 0.512500
vn 0.492400 0.000000 -0.870400
vn -0.492400 0.000000 0.870400
vn 0.000000 1.000000 0.000000
usemtl Material.001
s off
f 16//1 24//1 23//1
f 7//2 19//2 24//2
f 3//3 4//3 11//3
f 1//3 14//3 2//3
f 14//4 9//4 7//4
f 11//4 14//4 16//4
f 10//4 11//4 15//4
f 9//4 10//4 8//4
f 4//4 3//4 5//4
f 2//4 4//4 6//4
f 1//4 2//4 12//4
f 3//4 1//4 13//4
f 23//4 24//4 32//4
f 24//4 19//4 27//4
f 15//5 23//5 20//5
f 13//6 22//6 17//6
f 6//7 18//7 21//7
f 8//8 20//8 19//8
f 5//9 17//9 18//9
f 12//10 21//10 22//10
f 25//11 30//11 28//11
f 29//11 26//11 32//11
f 20//4 23//4 31//4
f 17//4 22//4 30//4
f 21//4 18//4 26//4
f 19//4 20//4 28//4
f 18//4 17//4 25//4
f 22//4 21//4 29//4
f 15//1 16//1 23//1
f 16//2 7//2 24//2
f 10//3 1//3 3//3
f 3//3 11//3 10//3
f 10//3 9//3 1//3
f 14//3 4//3 2//3
f 14//3 1//3 9//3
f 14//3 11//3 4//3
f 16//4 14//4 7//4
f 15//4 11//4 16//4
f 8//4 10//4 15//4
f 7//4 9//4 8//4
f 6//4 4//4 5//4
f 12//4 2//4 6//4
f 13//4 1//4 12//4
f 5//4 3//4 13//4
f 31//4 23//4 32//4
f 32//4 24//4 27//4
f 8//5 15//5 20//5
f 5//6 13//6 17//6
f 12//7 6//7 21//7
f 7//8 8//8 19//8
f 6//9 5//9 18//9
f 13//10 12//10 22//10
f 31//11 26//11 25//11
f 30//11 27//11 28//11
f 28//11 31//11 25//11
f 32//11 27//11 30//11
f 26//11 31//11 32//11
f 32//11 30//11 29//11
f 28//4 20//4 31//4
f 25//4 17//4 30//4
f 29//4 21//4 26//4
f 27//4 19//4 28//4
f 26//4 18//4 25//4
f 30//4 22//4 29//4
